# xmcd
#
# Track frame offsets:
#	182
#	11045
#	23157
#	35795
#	49895
#	59720
#	72470
#	83757
#	96282
#	109070
#	122345
#	133145
#	143945
#	155270
#	166970
#	180170
#	193470
#	205895
#	218907
#	230270
#	244520
#	257795
#	271557
#	282020
#	294620
#
# Disc length: 4151 seconds
#
# Revision: 0
# Processed by: cddbd v1.5.2PL0 Copyright (c) Steve Scherf et al.
# Submitted via: audiograbber 1.83.01
#
DISCID=71103519
DTITLE=Howlin' Wolf - Original Masters
DYEAR=1988
DGENRE=Blues
TTITLE0=I Didn't Know
TTITLE1=I Better Go Now
TTITLE2=My Mind Is Ramblin'
TTITLE3=Smokestack Lightnin'
TTITLE4=Down In The Bottom
TTITLE5=Fouty Four
TTITLE6=My Country Sugar Mama
TTITLE7=Spoonful
TTITLE8=Back Door Man
TTITLE9=Tell Me
TTITLE10=Wang-Dang Doodle
TTITLE11=Who's Been Talking
TTITLE12=Built For Comfort
TTITLE13=Ooh Baby Hold Me
TTITLE14=Baby How Long
TTITLE15=Three Hundred Pounds Of Joy
TTITLE16=Moving
TTITLE17=Stop Using Me
TTITLE18=Leave Here Walking
TTITLE19=Can't Stay Here
TTITLE20=Worried About My Baby
TTITLE21=Who's Been Talking
TTITLE22=Do The Do
TTITLE23=Highway 49
TTITLE24=Rockin' Daddy
EXTD=Finnish Compilation By Polarvox Oy 1988
EXTT0=
EXTT1=
EXTT2=
EXTT3=
EXTT4=
EXTT5=
EXTT6=
EXTT7=
EXTT8=
EXTT9=
EXTT10=
EXTT11=
EXTT12=
EXTT13=
EXTT14=
EXTT15=
EXTT16=
EXTT17=
EXTT18=
EXTT19=
EXTT20=
EXTT21=
EXTT22=
EXTT23=
EXTT24=
PLAYORDER=
